<svg xmlns="http://www.w3.org/2000/svg" viewBox="0 0 256 256" width="100%" style="max-width: 256px;">
  <g fill="#000">
    
    <path d="M120 80C110 56 90 36 60 22C48 17 43 29 52 35C76 53 93 70 104 90Z"/>
    <path d="M136 80C146 56 166 36 196 22C208 17 213 29 204 35C180 53 163 70 152 90Z"/>
    
    <path d="M98 96C79 89 60 78 43 63C28 50 20 33 26 23C34 12 51 15 62 30C72 44 80 59 87 79Z"/>
    <path d="M94 106C77 106 61 101 46 92C32 84 25 72 29 63C34 54 47 54 57 62C69 72 80 82 90 94Z"/>
    
    <path d="M158 96C177 89 196 78 213 63C228 50 236 33 230 23C222 12 205 15 194 30C184 44 176 59 169 79Z"/>
    <path d="M162 106C179 106 195 101 210 92C224 84 231 72 227 63C222 54 209 54 199 62C187 72 176 82 166 94Z"/>
    
    <path d="M100 104C83 114 71 128 63 144C60 150 63 156 70 158C77 160 83 157 87 151C93 138 102 126 115 118Z"/>
    <path d="M156 104C173 114 185 128 193 144C196 150 193 156 186 158C179 160 173 157 169 151C163 138 154 126 141 118Z"/>
    
    <path d="M128 70C100 70 82 97 82 130C82 159 100 185 128 198C156 185 174 159 174 130C174 97 156 70 128 70Z"/>
    <ellipse cx="128" cy="86" rx="20" ry="16"/>
    
    <path d="M118 188C102 197 90 211 86 228C102 224 115 219 126 210C123 202 121 194 118 188Z"/>
    <path d="M138 188C154 197 166 211 170 228C154 224 141 219 130 210C133 202 135 194 138 188Z"/>
    <path d="M128 192C116 206 114 222 128 238C142 222 140 206 128 192Z"/>
  </g>
</svg>