<svg width="550" height="450" viewBox="0 0 550 450" fill="none" xmlns="http://www.w3.org/2000/svg">
<path d="M106.869 359.994C107.41 354.75 107.631 354.176 108.283 356.313C108.709 357.705 109.675 363.17 110.432 368.459C112.133 380.352 111.666 402.564 109.521 411.863C105.718 428.344 98.1648 440.64 88.1953 446.573C82.9733 449.681 81.6065 450.034 74.9395 449.997C65.7195 449.947 59.7456 446.958 52.6758 438.859C47.462 432.886 42.1602 423.727 42.9814 422.114C43.2663 421.555 44.7731 420.766 46.3291 420.361C47.886 419.955 51.5708 418.307 54.5176 416.698L59.8779 413.771L63.1475 418.509C67.4765 424.781 71.0267 427.276 75.6318 427.281C80.3223 427.286 83.1199 425.531 87.7187 419.698C92.2837 413.908 95.4569 407.703 98.6982 398.234C101.527 389.967 105.877 369.611 106.869 359.994ZM246.175 301.427C252.885 299.885 252.679 299.742 253.765 306.663C255.253 316.154 259.224 325.272 265.737 334.156C275.025 346.826 277.183 354.104 274.6 364.051C272.463 372.278 266.081 381.93 254.802 393.994C228.023 422.633 222.247 429.657 218.458 438.192C217.032 441.401 216.941 441.448 216.645 439.117C216.038 434.35 218.396 422.01 221.33 414.594C225.952 402.913 228.899 398.368 243.719 380.064C252.388 369.358 257.532 362.204 257.532 360.857C257.532 359.676 256.08 356.161 254.307 353.047C241.782 331.065 238.431 322.574 236.953 309.075L236.354 303.61L239.299 302.97C240.919 302.618 244.012 301.923 246.175 301.427ZM279.53 288.697C279.855 288.672 281.526 291.451 283.243 294.874C288.003 304.366 297.056 314.897 306.459 321.884C316.499 329.343 319.287 332.326 321.402 337.861C325.76 349.261 322.344 357.795 302.051 386.202C291.581 400.86 282.178 416.712 278.124 426.54C275.555 432.772 274.054 435.395 273.585 434.477C272.142 431.648 272.153 414.152 273.604 407.13C276.582 392.719 284.893 376.247 298.41 357.968C301.854 353.312 304.68 349.143 304.691 348.7C304.703 348.26 301.86 345.699 298.377 343.01C290.14 336.65 282.539 328.782 275.973 319.823C270.503 312.358 264.059 299.045 264.794 296.727C265.025 295.998 266.926 294.782 269.018 294.026C271.11 293.27 274.198 291.771 275.88 290.697C277.562 289.622 279.204 288.723 279.53 288.697ZM209.853 303.591C210.063 303.179 213.113 303.191 216.629 303.617C220.144 304.044 223.48 304.423 224.043 304.459C224.802 304.508 224.832 305.546 224.157 308.493C223.658 310.677 223.474 315.795 223.749 319.869C224.168 326.066 225.042 329.198 229.096 339.017C234.665 352.506 235.252 357.728 232.086 365.652C229.266 372.708 223.083 377.827 203.364 389.432C185.352 400.033 175.898 406.784 171.978 411.849C169.067 415.609 168.399 415.282 169.46 410.617C173.009 395.006 183.909 382.398 204.752 369.797C213.474 364.524 218.217 360.265 218.217 357.706C218.217 356.793 216.628 351.865 214.685 346.758C210.259 335.118 208.202 322.727 208.935 312.105C209.229 307.835 209.642 304.005 209.853 303.591ZM97.2578 251.811C100.405 247.378 108.974 239.578 109.714 240.473C109.916 240.717 108.889 244.395 107.434 248.645C103.208 260.977 102.03 269.994 101.168 296.625C99.7019 341.881 94.351 360.241 75.9268 383.225C49.5362 416.148 14.7621 420.218 3.1875 391.74C0.620604 385.423 0.475203 384.445 0.820311 375.704C1.12436 367.999 1.67386 365.139 4.01269 359.085C10.6474 341.911 25.384 325.573 44.9902 313.653C51.9304 309.432 63.9272 303.467 65.4746 303.466C66.0145 303.466 63.8916 305.817 60.7578 308.692C42.3379 325.582 24.5929 350.203 20.3564 364.748C15.8885 380.086 22.0196 389.876 34.3936 387.165C41.9125 385.517 52.5578 378.718 59.4014 371.19C62.6322 367.636 67.6277 360.47 70.5029 355.263C78.457 340.86 80.6857 330.642 82.7686 299.039C84.0922 278.96 88.7421 263.804 97.2578 251.811ZM167.451 190.252C168.121 190.239 166.727 192.731 164.352 195.786C155.015 207.801 145.734 225.251 141.334 239.071C137.594 250.817 135.487 262.392 133.896 279.908C131.545 305.818 128.301 316.995 120.057 327.594C116.392 332.306 110.026 338.39 108.761 338.39C108.606 338.39 109.828 333.509 111.477 327.542C114.425 316.87 114.485 316.29 115.195 291.567C115.592 277.747 116.33 263.677 116.836 260.301C122.128 224.948 136.252 203.095 160.516 192.719C163.66 191.375 166.781 190.265 167.451 190.252ZM25.3516 275.469C31.6036 273.43 47.255 273.449 55.4746 275.505C61.6262 277.044 73.6297 282.114 72.9814 282.9C72.826 283.085 67.7051 283.758 61.5996 284.395C43.9183 286.239 31.7432 290.822 24.7441 298.265C20.6842 302.584 19.0166 307.043 19.0166 313.585C19.0166 318.32 18.7954 318.734 12.3477 326.055C8.67904 330.219 5.41409 333.756 5.09082 333.912C4.09026 334.394 1.72429 327.322 0.627928 320.576C-2.71471 299.992 7.54159 281.278 25.3516 275.469ZM549.636 168.877C550.037 171.017 550.12 177.705 549.82 183.739C548.825 203.763 545.594 218.441 538.312 236.004C525.271 267.455 504.492 292 476.391 309.148C450.364 325.029 425.762 332.176 397.369 332.101C371.24 332.033 351.274 326.449 329.297 313.066C319.678 307.207 305.306 295.342 298.596 287.718C293.326 281.731 293.039 281.177 294.614 280.03C296.874 278.382 309.418 268.028 312.538 265.234L315.014 263.017L320.129 265.459C324.299 267.451 326.937 267.906 334.417 267.932C342.432 267.959 344.303 267.604 349.228 265.115C352.324 263.551 354.953 262.383 355.072 262.52C355.187 262.658 355.694 266.81 356.197 271.743C357.329 282.814 361.186 292.873 367.671 301.663C370.16 305.037 372.349 307.611 372.536 307.386C372.721 307.158 371.744 303.922 370.362 300.194C366.584 289.993 365.589 283.429 366.068 271.858C366.833 253.417 372.522 239.299 385.01 224.848C391.139 217.754 402.386 209.23 405.521 209.301C406.057 209.314 409.199 211.445 412.504 214.039C419.865 219.815 429.468 224.402 439.208 226.791C449.826 229.398 465.755 228.495 476.391 224.683C499.016 216.572 518.808 201.523 538.859 177.183L548.906 164.985L549.636 168.877ZM331.796 118.881C335.993 118.3 371.352 119.163 377.009 119.986C379.532 120.353 381.593 120.95 381.589 121.312C381.584 121.676 378.29 126.444 374.269 131.906L366.955 141.842L353.088 141.653C312.231 141.094 269.692 152.422 234.38 173.264C210.68 187.252 197.418 199.898 187.413 218.05C182.308 227.312 178.711 238.374 174.951 256.372C169.084 284.453 161.807 300.169 150.615 308.931C145.642 312.824 139.562 315.627 137.711 314.88C137.232 314.686 138.083 312.634 139.603 310.32C147.232 298.693 150.273 288.8 155.241 259.447C162.812 214.715 173.187 194.253 200.199 170.778C229.07 145.687 276.393 125.671 319.127 120.474C324.413 119.831 330.114 119.115 331.796 118.881ZM358.443 0.386963C367.387 -0.746419 392.69 0.762099 401.194 2.93579C423.596 8.66111 440.009 21.6714 446.633 38.9563C449.988 47.7104 451.804 59.0871 451.252 67.8899C449.221 100.307 431.183 128.777 396.147 154.861L387.73 161.127L394.492 161.94C402.097 162.853 414.697 166.406 416.021 168.009C416.601 168.711 415.553 169.065 412.9 169.065C403.12 169.065 384.869 174.333 372.755 180.652C361.207 186.676 354.766 193.519 338.837 216.687C321.346 242.128 302.369 260.934 281.25 273.756C262.276 285.278 248.717 289.579 228.638 290.447C209.118 291.291 199.571 288.688 186.108 278.855C183.586 277.011 181.523 275.247 181.524 274.934C181.526 274.62 187.172 274.284 194.07 274.188C224.093 273.766 248.427 267.57 270.201 254.8C294.614 240.483 305.107 229.498 335.168 186.79C339.162 181.115 342.928 176.472 343.534 176.472C344.142 176.47 347.744 173.151 351.54 169.095C356.185 164.131 362.015 159.406 369.364 154.652C385.493 144.215 394.165 137.061 401.139 128.437C411.815 115.237 416.843 102.455 416.85 88.5012C416.858 70.9065 408.401 60.3223 388.847 53.4573C382.671 51.2899 380.234 51.0688 362.812 51.1038C344.641 51.1397 342.875 51.3252 330.485 54.4905C303.309 61.4349 282.505 70.2882 239.486 93.218C210.973 108.417 197.153 115.224 182.858 121.108C139.695 138.872 106.054 141.82 77.5859 130.33C69.8652 127.214 54.3865 118.468 55.084 117.616C55.2037 117.471 59.2271 118.938 64.0244 120.875C80.115 127.374 85.5538 128.325 106.385 128.28C123.36 128.241 126.221 127.965 136.091 125.409C164.001 118.18 183.449 109.467 226.954 84.7014C269.411 60.5325 285.968 52.3253 306.459 45.2952C341.142 33.3959 370.189 30.9206 392.83 37.9338C416.448 45.2519 430.281 63.805 430.598 88.593L430.673 94.4553L433.136 88.1057C438.124 75.2434 438.908 58.5586 435.021 47.9758C426.565 24.9476 398.43 12.9365 361.308 16.5061C326.525 19.8503 296.183 30.7578 243.117 58.9915C221.584 70.4483 204.605 78.5978 192.443 83.3157C172.297 91.1299 150.362 94.3898 134.78 91.886C126.561 90.5652 109.345 84.2449 106.644 81.5569C105.137 80.0576 105.138 80.0204 106.664 80.6067C113.988 83.4185 126.995 85.5495 136.975 85.5696C163.135 85.6235 185.079 77.5074 233.943 49.7053C261.56 33.992 269.35 29.786 283.63 22.8733C306.36 11.8715 334.453 3.42845 358.443 0.386963ZM479.886 156.435C488.345 155.046 503.296 155.991 511.086 158.404C514.665 159.513 519.136 161.256 521.019 162.279C524.208 164.009 524.293 164.165 522.259 164.546C510.715 166.714 493.468 174.811 482.814 183.067C474.594 189.436 465.822 199.34 460.507 208.251L455.422 216.776L449.191 216.169C442.333 215.501 433.252 212.734 426.557 209.269C421.127 206.459 413.923 200.927 413.922 199.567C413.922 197.456 423.91 185.962 431.235 179.641C444.798 167.938 463.162 159.179 479.886 156.435ZM324.053 154.832C327.137 150.083 330.153 149.156 334.824 151.519C337.897 153.074 340.532 157.755 340.532 161.656C340.532 168.25 334.658 173.938 329.212 172.619C323.014 171.117 320.07 160.966 324.053 154.832Z" fill="#007DEB"/>
</svg>
